<svg width="20" height="20" viewBox="0 0 20 20" fill="none" xmlns="http://www.w3.org/2000/svg">
<g clip-path="url(#clip0_185_604)">
<path d="M17.126 6.4375H12.376V5.25H17.126V6.4375ZM2.28223 2.875C1.29883 2.875 0.500977 3.67285 0.500977 4.65625V7.03125C0.500977 8.01465 1.29883 8.8125 2.28223 8.8125H17.7197C18.7031 8.8125 19.501 8.01465 19.501 7.03125V4.65625C19.501 3.67285 18.7031 2.875 17.7197 2.875H2.28223ZM17.126 13.5625V14.75H7.62598V13.5625H17.126ZM2.28223 11.1875C1.29883 11.1875 0.500977 11.9854 0.500977 12.9688V15.3438C0.500977 16.3271 1.29883 17.125 2.28223 17.125H17.7197C18.7031 17.125 19.501 16.3271 19.501 15.3438V12.9688C19.501 11.9854 18.7031 11.1875 17.7197 11.1875H2.28223Z" fill="#3F51B5"/>
</g>
<defs>
<clipPath id="clip0_185_604">
<rect width="19" height="19" fill="white" transform="translate(0.5 0.5)"/>
</clipPath>
</defs>
</svg>
