<svg width="20" height="20" viewBox="0 0 20 20" fill="none" xmlns="http://www.w3.org/2000/svg">
<g clip-path="url(#clip0_185_610)">
<path d="M9.53224 0.596094L1.21974 4.15859C0.70021 4.38125 0.410757 4.93789 0.525796 5.48711C0.640835 6.03633 1.12326 6.43711 1.68732 6.43711V6.73398C1.68732 7.22754 2.08439 7.62461 2.57794 7.62461H17.4217C17.9152 7.62461 18.3123 7.22754 18.3123 6.73398V6.43711C18.8764 6.43711 19.3625 6.04004 19.4738 5.48711C19.5852 4.93418 19.2957 4.37754 18.7799 4.15859L10.4674 0.596094C10.1668 0.469922 9.82912 0.469922 9.53224 0.596094ZM5.24982 8.81211H2.87482V16.0967C2.85255 16.1078 2.83029 16.1227 2.80802 16.1375L1.02677 17.325C0.592593 17.6145 0.395913 18.1562 0.548062 18.6572C0.70021 19.1582 1.16408 19.4996 1.68732 19.4996H18.3123C18.8356 19.4996 19.2957 19.1582 19.4479 18.6572C19.6 18.1562 19.407 17.6145 18.9692 17.325L17.1879 16.1375C17.1656 16.1227 17.1434 16.1115 17.1211 16.0967V8.81211H14.7498V15.9371H13.2654V8.81211H10.8904V15.9371H9.10919V8.81211H6.73419V15.9371H5.24982V8.81211ZM9.99982 5.24961C9.34298 5.24961 8.81232 4.71895 8.81232 4.06211C8.81232 3.40527 9.34298 2.87461 9.99982 2.87461C10.6567 2.87461 11.1873 3.40527 11.1873 4.06211C11.1873 4.71895 10.6567 5.24961 9.99982 5.24961Z" fill="#FF9800"/>
</g>
<defs>
<clipPath id="clip0_185_610">
<rect width="19" height="19" fill="white" transform="translate(0.5 0.5)"/>
</clipPath>
</defs>
</svg>
