<svg width="20" height="21" viewBox="0 0 20 21" fill="none" xmlns="http://www.w3.org/2000/svg">
<g clip-path="url(#clip0_777_3060)">
<path d="M9.99992 20.6347C9.59992 20.6347 9.19992 20.5347 8.83989 20.3347L1.95989 16.5547C1.11985 16.0948 0.599854 15.2148 0.599854 14.2347V7.03474C0.599854 6.05472 1.11984 5.17474 1.95989 4.71474L5.79989 2.59474C5.99989 2.49474 6.23985 2.55477 6.33985 2.75477C6.43985 2.95477 6.37983 3.19473 6.17983 3.29473L2.33983 5.41473C1.75988 5.73471 1.39986 6.3547 1.39986 7.03472V14.2347C1.39986 14.9147 1.75989 15.5347 2.33983 15.8547L9.21983 19.6347C9.69984 19.8947 10.2799 19.8947 10.7598 19.6347L11.9998 18.9547C12.1998 18.8547 12.4397 18.9147 12.5397 19.1147C12.6397 19.3147 12.5797 19.5547 12.3797 19.6547L11.1397 20.3347C10.7998 20.5347 10.3998 20.6347 9.99982 20.6347L9.99992 20.6347Z" fill="#89B349"/>
<path d="M5.25991 5.71475C5.21994 5.71475 5.1799 5.71475 5.13992 5.69476C4.91994 5.63473 4.81994 5.41474 4.87989 5.19476L5.49987 3.21476L3.55987 2.59478C3.33989 2.53475 3.23989 2.29478 3.29984 2.09478C3.35987 1.87473 3.59984 1.75474 3.79984 1.83474L6.11984 2.57471C6.31984 2.63474 6.43982 2.85473 6.37987 3.07471L5.63984 5.43471C5.59987 5.59474 5.43984 5.71473 5.25989 5.71473L5.25991 5.71475Z" fill="#89B349"/>
<path d="M13.98 18.7348C13.84 18.7348 13.7 18.6547 13.62 18.5348C13.52 18.3348 13.58 18.0948 13.78 17.9948L17.62 15.8748C18.2 15.5548 18.56 14.9348 18.56 14.2548L18.56 7.0348C18.56 6.35479 18.2 5.7348 17.6201 5.41482L10.7601 1.63482C10.28 1.37479 9.70003 1.37479 9.2201 1.63482L7.98013 2.31484C7.78013 2.41484 7.54016 2.35481 7.44016 2.15481C7.34003 1.95481 7.40006 1.71484 7.60006 1.61484L8.84003 0.934827C9.56001 0.534827 10.42 0.534827 11.16 0.934827L18.04 4.71483C18.8801 5.17479 19.4001 6.05479 19.4001 7.03483V14.2348C19.4001 15.2148 18.8801 16.0948 18.04 16.5548L14.18 18.6748C14.12 18.7149 14.06 18.7349 13.98 18.7349L13.98 18.7348Z" fill="#89B349"/>
<path d="M16.3 19.4747C16.26 19.4747 16.22 19.4747 16.18 19.4548L13.86 18.7148C13.66 18.6548 13.54 18.4348 13.6 18.2148L14.3399 15.8548C14.3999 15.6348 14.6199 15.5348 14.8399 15.5948C15.0599 15.6548 15.1599 15.8748 15.1 16.0948L14.48 18.0748L16.42 18.6947C16.64 18.7548 16.74 18.9947 16.68 19.1947C16.64 19.3548 16.48 19.4748 16.3 19.4748L16.3 19.4747Z" fill="#89B349"/>
<path d="M16.3 19.4747C16.26 19.4747 16.22 19.4747 16.18 19.4548L13.86 18.7148C13.66 18.6548 13.54 18.4348 13.6 18.2148L14.3399 15.8548C14.3999 15.6348 14.6199 15.5348 14.8399 15.5948C15.0599 15.6548 15.1599 15.8748 15.1 16.0948L14.48 18.0748L16.42 18.6947C16.64 18.7548 16.74 18.9947 16.68 19.1947C16.64 19.3548 16.48 19.4748 16.3 19.4748L16.3 19.4747Z" fill="#89B349"/>
<path d="M5.83211 13.3472C4.62269 13.3472 3.65967 12.3618 3.65967 11.1748C3.65967 9.96534 4.64513 9.00232 5.83211 9.00232C6.504 9.00232 7.10867 9.29351 7.53422 9.80857C7.69096 10.0102 7.66858 10.2789 7.467 10.4357C7.26541 10.5924 6.99669 10.5701 6.83986 10.3685C6.59352 10.0549 6.2352 9.89818 5.83203 9.89818C5.11538 9.89818 4.55547 10.4805 4.55547 11.1747C4.55547 11.869 5.13776 12.4513 5.83203 12.4513C6.16797 12.4513 6.50392 12.3169 6.72788 12.0706C6.90708 11.8914 7.17581 11.8914 7.35502 12.0706C7.53422 12.2498 7.53422 12.5185 7.35502 12.6977C6.97432 13.1232 6.41441 13.3472 5.8321 13.3472L5.83211 13.3472Z" fill="#89B349"/>
<path d="M10.0652 13.3472C8.90065 13.3472 7.95996 12.4066 7.95996 11.242C7.95996 10.0774 8.90057 9.13672 10.0652 9.13672C11.2298 9.13672 12.1705 10.0773 12.1705 11.242C12.1705 12.4065 11.2299 13.3472 10.0652 13.3472ZM10.0652 10.0326C9.39333 10.0326 8.8558 10.5701 8.8558 11.242C8.8558 11.9139 9.39333 12.4514 10.0652 12.4514C10.7371 12.4514 11.2746 11.9139 11.2746 11.242C11.2746 10.5701 10.7371 10.0326 10.0652 10.0326Z" fill="#89B349"/>
<path d="M15.4849 13.3473H13.0661C12.8197 13.3473 12.6182 13.1457 12.6182 12.8993C12.6182 12.0931 13.4244 11.6228 14.1187 11.2196C14.4994 10.9957 15.0818 10.6597 15.0818 10.4581C15.0818 10.1222 14.5891 10.0102 14.2979 10.0102C14.0292 10.0102 13.514 10.0998 13.514 10.4805C13.514 10.7268 13.3124 10.9284 13.0661 10.9284C12.8197 10.9284 12.6182 10.7268 12.6182 10.4805C12.6405 9.69663 13.3348 9.13672 14.3203 9.13672C15.2833 9.13672 16 9.71901 16 10.4805C16 11.2196 15.2833 11.6227 14.589 12.0259C14.3426 12.1602 14.0738 12.3171 13.8723 12.4738H15.5073C15.7537 12.4738 15.9552 12.6754 15.9552 12.9217C15.9329 13.1457 15.7313 13.3473 15.4849 13.3473H15.4849Z" fill="#89B349"/>
</g>
<defs>
<clipPath id="clip0_777_3060">
<rect width="20" height="20" fill="white" transform="translate(0 0.634766)"/>
</clipPath>
</defs>
</svg>