<svg width="20" height="20" viewBox="0 0 20 20" fill="none" xmlns="http://www.w3.org/2000/svg">
<path d="M12.7555 15.3388C12.6219 15.3947 12.4773 15.4254 12.3266 15.4254H8.95634C8.86613 15.4254 8.79716 15.4786 8.74944 15.5287L8.73755 15.5416L8.72229 15.5591L8.71683 15.5657L8.71525 15.5676L8.70097 15.5853C8.69274 15.5957 8.68556 15.6046 8.68055 15.6096C8.61928 15.7325 8.61928 15.9167 8.71122 16.0703C8.80315 16.1931 8.80315 16.4081 8.64995 16.5002C8.49676 16.5924 8.3129 16.5924 8.22096 16.4388C8.00651 16.101 7.97584 15.671 8.1597 15.3332C8.34356 14.9954 8.64995 14.8112 8.98693 14.8112H12.3572C12.6943 14.8112 12.97 14.4733 12.97 14.0741C12.97 13.6748 12.6943 13.337 12.3572 13.337H8.83374C8.52735 13.337 8.25163 13.1835 8.06777 12.9685C7.08734 11.7094 4.88136 12.1393 4.17666 12.3236V18.005L5.5554 17.9129C5.59131 17.9129 5.61667 17.9235 5.63769 17.9322C5.65257 17.9384 5.66529 17.9436 5.67793 17.9436L9.78357 19.4177C10.2738 19.5713 10.8253 19.5099 11.2848 19.2335L11.9946 18.7918C13.0965 18.1064 13.6243 17.7779 14.1475 17.4421C14.6284 17.1335 15.1053 16.8186 16.0203 16.2144C16.727 15.7477 17.6952 15.1085 19.1284 14.1662C19.4654 13.982 19.588 13.5213 19.4348 13.1528C19.2509 12.7842 18.8833 12.6921 18.6076 12.8457L13.8586 15.9781C13.7054 16.0703 13.5215 16.0396 13.4296 15.886C13.3624 15.7738 13.3607 15.6452 13.4243 15.5482H12.7555V15.3388Z" fill="#0AB5A5"/>
<path d="M7.94525 9.22181L8.34356 9.52892L8.3687 9.54144C8.38912 9.55149 8.40954 9.56105 8.42996 9.56903C8.46243 9.5817 8.49489 9.59032 8.52735 9.59032C8.58128 9.59032 8.63522 9.57979 8.68287 9.55868C8.71653 9.54376 8.74712 9.52363 8.77248 9.49821L9.50778 8.76115C9.63038 8.6383 9.63038 8.48475 9.53845 8.3619L8.98693 7.62484C9.20139 7.28703 9.35459 6.91852 9.44652 6.54997L10.3657 6.42716C10.5189 6.39642 10.6415 6.2736 10.6415 6.12005V5.04518C10.6415 4.89163 10.5189 4.76878 10.3657 4.73807L9.44652 4.61523C9.35459 4.21597 9.20139 3.87816 8.98693 3.54035L9.20139 3.26395H11.3768V5.41369C11.3768 5.44923 11.3845 5.48477 11.3976 5.5181C11.43 5.59994 11.4953 5.66828 11.5606 5.69009C11.6832 5.7208 11.8057 5.69009 11.8976 5.59795L13.3376 4.00101L14.7777 5.59795C14.826 5.64631 14.8826 5.67776 14.9433 5.69227C14.9982 5.70539 15.0565 5.70468 15.1147 5.69009C15.1762 5.67469 15.2223 5.63611 15.2529 5.58595C15.2834 5.53613 15.2986 5.47491 15.2986 5.41369V3.26395H18.6994V10.6345H7.94525V9.22181Z" fill="#0AB5A5"/>
<path d="M13.5215 3.3561L14.6551 4.61523V0.5H11.9589V4.61523L13.0926 3.3561C13.1055 3.33019 13.1298 3.3095 13.1599 3.29451L13.1628 3.29312C13.1789 3.28547 13.1967 3.27932 13.2155 3.27467C13.2444 3.26755 13.2757 3.26395 13.307 3.26395C13.3177 3.26395 13.3292 3.26489 13.3413 3.26673L13.3447 3.26725C13.3669 3.27093 13.391 3.2776 13.4151 3.28735C13.4301 3.29338 13.445 3.30058 13.4595 3.30898C13.4741 3.31745 13.4884 3.32716 13.5016 3.33803C13.5086 3.34373 13.5151 3.34976 13.5215 3.3561Z" fill="#0AB5A5"/>
<path d="M9.56912 2.64974C9.56912 2.55759 9.53845 2.43478 9.47719 2.37334L8.74181 1.63628C8.61928 1.51346 8.46609 1.51346 8.34356 1.60557L7.94525 1.91268V0.5H11.3461V2.64974H9.56912Z" fill="#0AB5A5"/>
<path d="M5.5554 3.72461C6.5665 3.72461 7.39373 4.55378 7.39373 5.56725C7.39373 6.58071 6.5665 7.40988 5.5554 7.40988C4.54431 7.40988 3.71707 6.58071 3.71707 5.56725C3.71707 4.55378 4.54431 3.72461 5.5554 3.72461Z" fill="#0AB5A5"/>
<path fill-rule="evenodd" clip-rule="evenodd" d="M1.14344 5.29084L2.00127 5.16799C2.12387 5.13729 2.2464 5.04518 2.27707 4.92233C2.33833 4.49238 2.52219 4.06242 2.79791 3.69391C2.82245 3.64472 2.83718 3.59554 2.84204 3.54635C2.84631 3.50317 2.84302 3.45998 2.83217 3.41679C2.82454 3.38631 2.8131 3.35584 2.79791 3.32536L2.2464 2.61904L2.61405 2.25049L3.28816 2.77259C3.38002 2.8647 3.56388 2.8647 3.65581 2.77259C4.05413 2.52689 4.48304 2.34263 4.94263 2.25049C5.06515 2.21978 5.15708 2.12768 5.18775 1.97412L5.31028 1.11421H5.83112L5.95372 1.97412C5.98432 2.09693 6.07625 2.21978 6.19885 2.25049C6.65843 2.34263 7.08734 2.52689 7.45499 2.77259C7.57759 2.8647 7.73079 2.834 7.82265 2.77259L8.52735 2.25049L8.895 2.61904L8.37416 3.32536C8.28223 3.41751 8.28223 3.57106 8.37416 3.69391C8.61928 4.06242 8.80315 4.49238 8.895 4.95303C8.92567 5.07588 9.0176 5.16799 9.1708 5.19873L10.0287 5.32155V5.84365L9.1708 5.9665C9.0482 5.9972 8.92567 6.08931 8.895 6.21216C8.80315 6.67282 8.61928 7.10277 8.37416 7.47129C8.3681 7.4834 8.36264 7.4955 8.35778 7.50761L8.35651 7.51106C8.34095 7.55084 8.33175 7.59087 8.32905 7.63065C8.32786 7.64823 8.32793 7.66581 8.32928 7.6834C8.33115 7.70881 8.33564 7.73423 8.34282 7.75965C8.35037 7.78638 8.36084 7.81311 8.37416 7.83984L8.895 8.54616L8.52735 8.91471L7.82265 8.3926C7.73079 8.30049 7.57759 8.30049 7.45499 8.3926C7.08734 8.6383 6.65843 8.82256 6.19885 8.91471C6.07625 8.94541 5.98432 9.03756 5.95372 9.19111L5.83112 10.0203H5.31028L5.18775 9.16037C5.15708 9.03756 5.06515 8.91471 4.94263 8.884C4.48304 8.79186 4.05413 8.6076 3.68641 8.3619C3.56388 8.30049 3.44136 8.30049 3.31876 8.3619L2.61405 8.884L2.2464 8.51545L2.76724 7.83984C2.85917 7.74769 2.85917 7.56343 2.76724 7.44058C2.52219 7.07207 2.33833 6.64212 2.27707 6.21216C2.2464 6.08931 2.15447 5.9972 2.00127 5.9665L1.14344 5.84365V5.29084ZM8.00651 5.56725C8.00651 6.91852 6.90348 8.02409 5.5554 8.02409C4.20733 8.02409 3.1043 6.91852 3.1043 5.56725C3.1043 4.21597 4.20733 3.1104 5.5554 3.1104C6.90348 3.1104 8.00651 4.21597 8.00651 5.56725Z" fill="#0AB5A5"/>
<path d="M18.6688 2.61904H15.2679V0.5H18.6688V2.61904Z" fill="#0AB5A5"/>
<path d="M3.56388 18.7728H0.5V11.3716H3.56388V18.7728Z" fill="#0AB5A5"/>
</svg>
