<svg width="20" height="20" viewBox="0 0 20 20" fill="none" xmlns="http://www.w3.org/2000/svg">
<path d="M16.3828 8.81055H11.1875C10.7151 8.81055 10.262 8.62288 9.92797 8.28883C9.59392 7.95478 9.40625 7.50171 9.40625 7.0293V1.83398C9.40625 1.79462 9.39061 1.75686 9.36277 1.72902C9.33494 1.70119 9.29718 1.68555 9.25781 1.68555H5.84375C5.21386 1.68555 4.60977 1.93577 4.16437 2.38117C3.71897 2.82657 3.46875 3.43066 3.46875 4.06055V15.9355C3.46875 16.5654 3.71897 17.1695 4.16437 17.6149C4.60977 18.0603 5.21386 18.3105 5.84375 18.3105H14.1562C14.7861 18.3105 15.3902 18.0603 15.8356 17.6149C16.281 17.1695 16.5312 16.5654 16.5312 15.9355V8.95898C16.5312 8.91962 16.5156 8.88186 16.4878 8.85402C16.4599 8.82618 16.4222 8.81055 16.3828 8.81055ZM12.9688 14.748H7.03125C6.87378 14.748 6.72276 14.6855 6.61141 14.5741C6.50006 14.4628 6.4375 14.3118 6.4375 14.1543C6.4375 13.9968 6.50006 13.8458 6.61141 13.7345C6.72276 13.6231 6.87378 13.5605 7.03125 13.5605H12.9688C13.1262 13.5605 13.2772 13.6231 13.3886 13.7345C13.4999 13.8458 13.5625 13.9968 13.5625 14.1543C13.5625 14.3118 13.4999 14.4628 13.3886 14.5741C13.2772 14.6855 13.1262 14.748 12.9688 14.748ZM12.9688 11.7793H7.03125C6.87378 11.7793 6.72276 11.7167 6.61141 11.6054C6.50006 11.494 6.4375 11.343 6.4375 11.1855C6.4375 11.0281 6.50006 10.8771 6.61141 10.7657C6.72276 10.6544 6.87378 10.5918 7.03125 10.5918H12.9688C13.1262 10.5918 13.2772 10.6544 13.3886 10.7657C13.4999 10.8771 13.5625 11.0281 13.5625 11.1855C13.5625 11.343 13.4999 11.494 13.3886 11.6054C13.2772 11.7167 13.1262 11.7793 12.9688 11.7793Z" fill="#FF5722"/>
<path d="M16.057 7.49695L10.7203 2.16025C10.7099 2.14994 10.6967 2.14292 10.6824 2.14008C10.668 2.13724 10.6531 2.13871 10.6396 2.1443C10.6261 2.1499 10.6145 2.15936 10.6064 2.17151C10.5982 2.18366 10.5938 2.19795 10.5938 2.21258V7.02975C10.5938 7.18722 10.6563 7.33824 10.7677 7.44959C10.879 7.56094 11.03 7.6235 11.1875 7.6235H16.0047C16.0193 7.62344 16.0336 7.61905 16.0457 7.61089C16.0579 7.60273 16.0674 7.59116 16.0729 7.57764C16.0785 7.56412 16.08 7.54924 16.0772 7.53489C16.0743 7.52053 16.0673 7.50733 16.057 7.49695Z" fill="#FF5722"/>
</svg>
