<svg width="20" height="20" viewBox="0 0 20 20" fill="none" xmlns="http://www.w3.org/2000/svg">
<path d="M16.6424 0.605908C16.7492 0.536394 16.8682 0.500038 16.989 0.5C17.0982 0.499912 17.2061 0.529479 17.3049 0.586592C17.4037 0.643704 17.4911 0.726957 17.5608 0.830411C17.6305 0.933866 17.6808 1.05498 17.7081 1.1851C17.7354 1.31523 17.739 1.45117 17.7188 1.58322C17.6985 1.71528 17.6548 1.8402 17.5908 1.94908C17.5268 2.05796 17.444 2.14811 17.3485 2.21311C17.2529 2.27811 17.1469 2.31636 17.0379 2.32512C16.929 2.33388 16.8198 2.31294 16.7182 2.2638L12.9126 8.32329C12.9568 8.4618 12.9729 8.6115 12.9594 8.75938C12.9459 8.90726 12.9032 9.04884 12.8351 9.17181C12.767 9.29478 12.6756 9.39541 12.5687 9.46496C12.4618 9.5345 12.3428 9.57086 12.2219 9.57086C12.101 9.57086 11.9819 9.5345 11.875 9.46496C11.7682 9.39541 11.6767 9.29478 11.6086 9.17181C11.5405 9.04884 11.4979 8.90726 11.4844 8.75938C11.4709 8.6115 11.4869 8.4618 11.5311 8.32329L7.98661 5.85917C7.81253 5.94352 7.61894 5.94352 7.44485 5.85917L3.71035 10.5832C3.77261 10.7785 3.77833 10.9943 3.72653 11.1943C3.67474 11.3942 3.56859 11.5661 3.42594 11.6811C3.28329 11.796 3.11284 11.847 2.94325 11.8255C2.77365 11.8039 2.61526 11.7111 2.4947 11.5627C2.37415 11.4143 2.29877 11.2194 2.28126 11.0106C2.26375 10.8018 2.30517 10.592 2.39855 10.4164C2.49193 10.2408 2.63158 10.1102 2.79401 10.0464C2.95645 9.98266 3.13177 9.98969 3.29049 10.0663L7.02499 5.34234C6.98078 5.20383 6.96474 5.05413 6.97824 4.90625C6.99175 4.75837 7.0344 4.61678 7.10248 4.49382C7.17057 4.37085 7.26202 4.27021 7.3689 4.20067C7.47578 4.13112 7.59484 4.09477 7.71573 4.09477C7.83663 4.09477 7.95569 4.13112 8.06257 4.20067C8.16944 4.27021 8.2609 4.37085 8.32899 4.49382C8.39707 4.61678 8.43972 4.75837 8.45323 4.90625C8.46673 5.05413 8.45068 5.20383 8.40648 5.34234L11.951 7.80646C12.1251 7.72211 12.3187 7.72211 12.4928 7.80646L16.2983 1.74697C16.2542 1.60849 16.2382 1.45886 16.2518 1.31106C16.2653 1.16326 16.308 1.02177 16.3761 0.89888C16.4442 0.775991 16.5356 0.675422 16.6424 0.605908Z" fill="#795548"/>
<path d="M18.3125 5.61393H15.9375V18.0383H13.5625V12.1915H11.1875V18.0383H8.8125V9.26816H6.4375V18.0383H4.0625V15.1149H1.6875V18.0383H1.09375C0.765831 18.0383 0.5 18.3655 0.5 18.7692C0.5 19.1728 0.765831 19.5 1.09375 19.5H18.9062C19.2342 19.5 19.5 19.1728 19.5 18.7692C19.5 18.3655 19.2342 18.0383 18.9062 18.0383H18.3125V5.61393Z" fill="#795548"/>
</svg>
